<mxfile host="app.diagrams.net" modified="2021-02-28T12:29:02.944Z" agent="5.0 (Macintosh; Intel Mac OS X 10_15_6) AppleWebKit/605.1.15 (KHTML, like Gecko) Version/14.0.3 Safari/605.1.15" etag="WJzNW0ET3a5KGISaAapp" version="14.4.3" type="github">
  <diagram id="MuPQEXqi91Hl-snumfB-" name="Page-1">
    <mxGraphModel dx="2066" dy="1185" grid="1" gridSize="10" guides="1" tooltips="1" connect="1" arrows="1" fold="1" page="1" pageScale="1" pageWidth="827" pageHeight="1169" math="0" shadow="0">
      <root>
        <mxCell id="0" />
        <mxCell id="1" parent="0" />
        <mxCell id="08i6mxyqyr1tdbwco5VG-1" value="" style="whiteSpace=wrap;html=1;aspect=fixed;" vertex="1" parent="1">
          <mxGeometry x="80" y="120" width="280" height="280" as="geometry" />
        </mxCell>
        <mxCell id="08i6mxyqyr1tdbwco5VG-2" value="" style="whiteSpace=wrap;html=1;aspect=fixed;" vertex="1" parent="1">
          <mxGeometry x="440" y="120" width="280" height="280" as="geometry" />
        </mxCell>
        <mxCell id="08i6mxyqyr1tdbwco5VG-3" value="Hardware" style="rounded=0;whiteSpace=wrap;html=1;" vertex="1" parent="1">
          <mxGeometry x="100" y="340" width="240" height="40" as="geometry" />
        </mxCell>
        <mxCell id="08i6mxyqyr1tdbwco5VG-4" value="Operační systém" style="rounded=0;whiteSpace=wrap;html=1;" vertex="1" parent="1">
          <mxGeometry x="100" y="290" width="240" height="40" as="geometry" />
        </mxCell>
        <mxCell id="08i6mxyqyr1tdbwco5VG-5" value="Docker" style="rounded=0;whiteSpace=wrap;html=1;" vertex="1" parent="1">
          <mxGeometry x="100" y="240" width="240" height="40" as="geometry" />
        </mxCell>
        <mxCell id="08i6mxyqyr1tdbwco5VG-6" value="Aplikace 1" style="rounded=0;whiteSpace=wrap;html=1;rotation=-90;" vertex="1" parent="1">
          <mxGeometry x="80" y="170" width="80" height="40" as="geometry" />
        </mxCell>
        <mxCell id="08i6mxyqyr1tdbwco5VG-11" value="" style="rounded=0;whiteSpace=wrap;html=1;" vertex="1" parent="1">
          <mxGeometry x="460" y="140" width="70" height="140" as="geometry" />
        </mxCell>
        <mxCell id="08i6mxyqyr1tdbwco5VG-12" value="Hardware" style="rounded=0;whiteSpace=wrap;html=1;" vertex="1" parent="1">
          <mxGeometry x="460" y="340" width="240" height="40" as="geometry" />
        </mxCell>
        <mxCell id="08i6mxyqyr1tdbwco5VG-13" value="Hypervisor" style="rounded=0;whiteSpace=wrap;html=1;" vertex="1" parent="1">
          <mxGeometry x="460" y="290" width="240" height="40" as="geometry" />
        </mxCell>
        <mxCell id="08i6mxyqyr1tdbwco5VG-14" value="" style="rounded=0;whiteSpace=wrap;html=1;" vertex="1" parent="1">
          <mxGeometry x="545" y="140" width="70" height="140" as="geometry" />
        </mxCell>
        <mxCell id="08i6mxyqyr1tdbwco5VG-15" value="" style="rounded=0;whiteSpace=wrap;html=1;" vertex="1" parent="1">
          <mxGeometry x="630" y="140" width="70" height="140" as="geometry" />
        </mxCell>
        <mxCell id="08i6mxyqyr1tdbwco5VG-16" value="Operační systém" style="rounded=0;whiteSpace=wrap;html=1;" vertex="1" parent="1">
          <mxGeometry x="460" y="220" width="70" height="60" as="geometry" />
        </mxCell>
        <mxCell id="08i6mxyqyr1tdbwco5VG-19" value="Operační systém" style="rounded=0;whiteSpace=wrap;html=1;" vertex="1" parent="1">
          <mxGeometry x="545" y="220" width="70" height="60" as="geometry" />
        </mxCell>
        <mxCell id="08i6mxyqyr1tdbwco5VG-20" value="Operační systém" style="rounded=0;whiteSpace=wrap;html=1;" vertex="1" parent="1">
          <mxGeometry x="630" y="220" width="70" height="60" as="geometry" />
        </mxCell>
        <mxCell id="08i6mxyqyr1tdbwco5VG-21" value="Aplikace 1" style="rounded=0;whiteSpace=wrap;html=1;" vertex="1" parent="1">
          <mxGeometry x="460" y="140" width="70" height="80" as="geometry" />
        </mxCell>
        <mxCell id="08i6mxyqyr1tdbwco5VG-22" value="Aplikace 2" style="rounded=0;whiteSpace=wrap;html=1;" vertex="1" parent="1">
          <mxGeometry x="545" y="140" width="70" height="80" as="geometry" />
        </mxCell>
        <mxCell id="08i6mxyqyr1tdbwco5VG-23" value="Aplikace 3" style="rounded=0;whiteSpace=wrap;html=1;" vertex="1" parent="1">
          <mxGeometry x="630" y="140" width="70" height="80" as="geometry" />
        </mxCell>
        <mxCell id="08i6mxyqyr1tdbwco5VG-24" value="Aplikace 2" style="rounded=0;whiteSpace=wrap;html=1;rotation=-90;" vertex="1" parent="1">
          <mxGeometry x="130" y="170" width="80" height="40" as="geometry" />
        </mxCell>
        <mxCell id="08i6mxyqyr1tdbwco5VG-25" value="Aplikace 3" style="rounded=0;whiteSpace=wrap;html=1;rotation=-90;" vertex="1" parent="1">
          <mxGeometry x="180" y="170" width="80" height="40" as="geometry" />
        </mxCell>
        <mxCell id="08i6mxyqyr1tdbwco5VG-26" value="Aplikace 4" style="rounded=0;whiteSpace=wrap;html=1;rotation=-90;" vertex="1" parent="1">
          <mxGeometry x="230" y="170" width="80" height="40" as="geometry" />
        </mxCell>
        <mxCell id="08i6mxyqyr1tdbwco5VG-27" value="Aplikace 5" style="rounded=0;whiteSpace=wrap;html=1;rotation=-90;" vertex="1" parent="1">
          <mxGeometry x="280" y="170" width="80" height="40" as="geometry" />
        </mxCell>
        <mxCell id="08i6mxyqyr1tdbwco5VG-28" value="&lt;font style=&quot;font-size: 24px&quot;&gt;Kontejner&lt;/font&gt;" style="text;html=1;strokeColor=none;fillColor=none;align=center;verticalAlign=middle;whiteSpace=wrap;rounded=0;" vertex="1" parent="1">
          <mxGeometry x="80" y="80" width="280" height="40" as="geometry" />
        </mxCell>
        <mxCell id="08i6mxyqyr1tdbwco5VG-29" value="&lt;font style=&quot;font-size: 24px&quot;&gt;Virtuální stroj&lt;/font&gt;" style="text;html=1;strokeColor=none;fillColor=none;align=center;verticalAlign=middle;whiteSpace=wrap;rounded=0;" vertex="1" parent="1">
          <mxGeometry x="440" y="80" width="280" height="40" as="geometry" />
        </mxCell>
      </root>
    </mxGraphModel>
  </diagram>
</mxfile>
